<svg width="162" height="40" viewBox="0 0 162 40" fill="none" xmlns="http://www.w3.org/2000/svg">
<g clip-path="url(#clip0_296_9)">
<path d="M19.7565 7.58934H39.513V0.175995H19.7565C8.8452 0.175995 0 9.0266 0 19.9445C0 30.8624 8.8452 39.7143 19.7565 39.7143C29.3033 39.7143 37.2687 32.9372 39.1118 23.9294C39.1305 23.8371 39.1467 23.7448 39.1641 23.6524C39.3897 22.4572 39.513 21.2034 39.513 19.9458V16.2391H19.7565V23.6524H31.5377C29.9638 28.6654 25.2845 32.3009 19.7565 32.3009C12.9376 32.3009 7.40839 26.769 7.40839 19.9445C7.40839 13.12 12.9363 7.5881 19.7565 7.5881V7.58934Z" fill="#38D430"/>
<path d="M63.4604 7.62927L74.5412 7.58061V0.175995L63.4604 0.224646C52.5627 0.224646 43.7288 9.06528 43.7288 19.9695C43.7288 30.8737 52.5627 39.7143 63.4604 39.7143H74.5412V32.3097H63.4604C56.6489 32.3097 51.1284 26.7852 51.1284 19.9695C51.1284 13.1537 56.6501 7.62927 63.4604 7.62927Z" fill="#38D430"/>
<path d="M98.5147 0.175995C87.6034 0.175995 78.7582 9.0266 78.7582 19.9458C78.7582 30.8649 87.6034 39.7155 98.5147 39.7155C109.426 39.7155 118.271 30.8649 118.271 19.9458C118.271 9.0266 109.426 0.175995 98.5147 0.175995ZM98.5147 32.3009C91.6957 32.3009 86.1666 26.769 86.1666 19.9445C86.1666 13.12 91.6945 7.5881 98.5147 7.5881C105.335 7.5881 110.863 13.12 110.863 19.9445C110.863 26.769 105.335 32.3009 98.5147 32.3009Z" fill="#38D430"/>
<path d="M142.243 0.175995C131.332 0.175995 122.487 9.0266 122.487 19.9458C122.487 30.8649 131.332 39.7155 142.243 39.7155C153.155 39.7155 162 30.8649 162 19.9458C162 9.0266 153.155 0.175995 142.243 0.175995ZM142.243 32.3009C135.425 32.3009 129.895 26.769 129.895 19.9445C129.895 13.12 135.423 7.5881 142.243 7.5881C149.064 7.5881 154.592 13.12 154.592 19.9445C154.592 26.769 149.064 32.3009 142.243 32.3009Z" fill="#38D430"/>
</g>
<defs>
<clipPath id="clip0_296_9">
<rect width="162" height="40" fill="white"/>
</clipPath>
</defs>
</svg>
