<svg width="75" height="57" viewBox="0 0 75 57" fill="none" xmlns="http://www.w3.org/2000/svg">
<rect x="30" y="1" width="16" height="30" rx="8" stroke="#303031" stroke-width="2"/>
<circle cx="38" cy="23" r="3" fill="#303031"/>
<path d="M7.1943 46.3636H8.38748C8.3328 44.8274 6.91589 43.679 4.94714 43.679C2.99828 43.679 1.46703 44.8125 1.46703 46.5227C1.46703 47.8949 2.46135 48.7102 4.05226 49.1676L5.3051 49.5256C6.37896 49.8239 7.33351 50.2017 7.33351 51.2159C7.33351 52.3295 6.25964 53.0653 4.84771 53.0653C3.63464 53.0653 2.56078 52.5284 2.46135 51.375H1.18862C1.30794 53.0455 2.66021 54.179 4.84771 54.179C7.1943 54.179 8.52669 52.8864 8.52669 51.2358C8.52669 49.3267 6.71703 48.7102 5.66305 48.4318L4.62896 48.1534C3.87328 47.9545 2.66021 47.5568 2.66021 46.4631C2.66021 45.4886 3.5551 44.7727 4.90737 44.7727C6.14032 44.7727 7.07498 45.3594 7.1943 46.3636ZM13.217 54.1591C14.9074 54.1591 16.021 53.125 16.2199 51.7727H15.0466C14.8278 52.608 14.1318 53.1051 13.217 53.1051C11.825 53.1051 10.9301 51.9517 10.9301 50.1818C10.9301 48.4517 11.8449 47.3182 13.217 47.3182C14.2511 47.3182 14.8676 47.9545 15.0466 48.6506H16.2199C16.021 47.2188 14.8079 46.2642 13.1972 46.2642C11.129 46.2642 9.75681 47.8949 9.75681 50.2216C9.75681 52.5085 11.0693 54.1591 13.217 54.1591ZM17.6551 54H18.8284V49.1676C18.8284 48.1335 19.6437 47.3778 20.7573 47.3778C21.0706 47.3778 21.3937 47.4375 21.4733 47.4574V46.2642C21.339 46.2543 21.0308 46.2443 20.8568 46.2443C19.942 46.2443 19.1466 46.7614 18.8681 47.517H18.7886V46.3636H17.6551V54ZM25.4539 54.1591C27.5221 54.1591 28.9141 52.5881 28.9141 50.2216C28.9141 47.8352 27.5221 46.2642 25.4539 46.2642C23.3857 46.2642 21.9937 47.8352 21.9937 50.2216C21.9937 52.5881 23.3857 54.1591 25.4539 54.1591ZM25.4539 53.1051C23.8829 53.1051 23.167 51.7528 23.167 50.2216C23.167 48.6903 23.8829 47.3182 25.4539 47.3182C27.0249 47.3182 27.7408 48.6903 27.7408 50.2216C27.7408 51.7528 27.0249 53.1051 25.4539 53.1051ZM31.5984 43.8182H30.4252V54H31.5984V43.8182ZM34.6407 43.8182H33.4674V54H34.6407V43.8182ZM43.0507 54.1591C44.5223 54.1591 45.0195 53.2443 45.278 52.8267H45.4172V54H46.5507V43.8182H45.3774V47.5767H45.278C45.0195 47.179 44.5621 46.2642 43.0706 46.2642C41.1416 46.2642 39.8092 47.7955 39.8092 50.2017C39.8092 52.6278 41.1416 54.1591 43.0507 54.1591ZM43.2098 53.1051C41.7382 53.1051 40.9825 51.8125 40.9825 50.1818C40.9825 48.571 41.7183 47.3182 43.2098 47.3182C44.6416 47.3182 45.3973 48.4716 45.3973 50.1818C45.3973 51.9119 44.6217 53.1051 43.2098 53.1051ZM51.6848 54.1591C53.753 54.1591 55.145 52.5881 55.145 50.2216C55.145 47.8352 53.753 46.2642 51.6848 46.2642C49.6166 46.2642 48.2245 47.8352 48.2245 50.2216C48.2245 52.5881 49.6166 54.1591 51.6848 54.1591ZM51.6848 53.1051C50.1137 53.1051 49.3978 51.7528 49.3978 50.2216C49.3978 48.6903 50.1137 47.3182 51.6848 47.3182C53.2558 47.3182 53.9717 48.6903 53.9717 50.2216C53.9717 51.7528 53.2558 53.1051 51.6848 53.1051ZM58.1264 54H59.2798L60.9502 48.1335H61.0695L62.74 54H63.8934L66.2201 46.3636H64.9872L63.3366 52.1903H63.257L61.6462 46.3636H60.3934L58.7627 52.2102H58.6832L57.0326 46.3636H55.7997L58.1264 54ZM68.6645 49.4062C68.6645 48.0739 69.4898 47.3182 70.6134 47.3182C71.7022 47.3182 72.3634 48.0291 72.3634 49.2273V54H73.5367V49.1477C73.5367 47.1989 72.4976 46.2642 70.9515 46.2642C69.7981 46.2642 69.0822 46.7812 68.7242 47.5568H68.6248V46.3636H67.4912V54H68.6645V49.4062Z" fill="#66645E"/>
</svg>
